PathFileType	4	(X/Y/Z)	Gait_media_markers.trc
DataRate	CameraRate	NumFrames	NumMarkers	Units	OrigDataRate	OrigDataStartFrame	OrigNumFrames
100	100	8	38	m	100	1	93
Frame#	Time	RASI			RPSI			LPSI			LASI			RTROCH			RTHI			RTHI2			RTHI3			RTHI4			RKNE			RKNEM			RTIB			RTIB2			RTIB3			RTIB4			RANK			RANKM			RHEE			RTOE			RTOEL			RTOEM			LTROCH			LTHI			LTHI2			LTHI3			LTHI4			LKNE			LKNEM			LTIB			LTIB2			LTIB3			LTIB4			LANK			LANKM			LHEE			LTOE			LTOEL			LTOEM
		X1	Y1	Z1	X2	Y2	Z2	X3	Y3	Z3	X4	Y4	Z4	X5	Y5	Z5	X6	Y6	Z6	X7	Y7	Z7	X8	Y8	Z8	X9	Y9	Z9	X10	Y10	Z10	X11	Y11	Z11	X12	Y12	Z12	X13	Y13	Z13	X14	Y14	Z14	X15	Y15	Z15	X16	Y16	Z16	X17	Y17	Z17	X18	Y18	Z18	X19	Y19	Z19	X20	Y20	Z20	X21	Y21	Z21	X22	Y22	Z22	X23	Y23	Z23	X24	Y24	Z24	X25	Y25	Z25	X26	Y26	Z26	X27	Y27	Z27	X28	Y28	Z28	X29	Y29	Z29	X30	Y30	Z30	X31	Y31	Z31	X32	Y32	Z32	X33	Y33	Z33	X34	Y34	Z34	X35	Y35	Z35	X36	Y36	Z36	X37	Y37	Z37	X38	Y38	Z38

1	0.000000	-0.326443	0.961051	-0.748172	-0.276925	1.014375	-0.932876	-0.179040	1.002941	-0.933820	-0.102864	0.976062	-0.754012	-0.389204	0.889133	-0.811110	-0.395614	0.769660	-0.829120	-0.370142	0.769353	-0.766545	-0.354211	0.687957	-0.765160	-0.377750	0.682498	-0.824336	-0.338117	0.534899	-0.837909	-0.232596	0.545559	-0.872950	-0.367805	0.404516	-0.882514	-0.319947	0.394045	-0.837037	-0.316590	0.307805	-0.853827	-0.366532	0.323974	-0.899748	-0.319765	0.113063	-0.965434	-0.241251	0.117407	-0.955515	-0.293789	0.061102	-1.037801	-0.268370	0.056458	-0.799665	-0.337194	0.040646	-0.841409	-0.221332	0.028928	-0.828151	-0.047906	0.906278	-0.826333	-0.044169	0.709254	-0.720872	-0.065544	0.728960	-0.663923	-0.077389	0.649620	-0.642382	-0.056575	0.625036	-0.699640	-0.074830	0.556506	-0.652144	-0.183488	0.568128	-0.659821	-0.042937	0.331530	-0.657367	-0.071659	0.342332	-0.600645	-0.074990	0.254858	-0.597739	-0.047966	0.248404	-0.653117	-0.065017	0.113067	-0.636256	-0.144682	0.138083	-0.614401	-0.107454	0.055029	-0.685989	-0.089477	0.106036	-0.458600	-0.036714	0.077247	-0.497052	-0.140633	0.087774	-0.476024
2	0.010000	-0.326856	0.959365	-0.737680	-0.276044	1.013071	-0.922033	-0.178131	1.001196	-0.922006	-0.103113	0.973609	-0.741767	-0.389619	0.887840	-0.801235	-0.396142	0.768549	-0.820549	-0.370865	0.767716	-0.758060	-0.354802	0.686321	-0.757521	-0.377863	0.681605	-0.814809	-0.338652	0.534014	-0.832529	-0.232966	0.545038	-0.866679	-0.367932	0.404025	-0.879074	-0.320697	0.393578	-0.832998	-0.316890	0.307374	-0.851432	-0.366595	0.323989	-0.897444	-0.319366	0.114151	-0.964930	-0.241392	0.116977	-0.954832	-0.293458	0.062637	-1.038697	-0.269305	0.056526	-0.800567	-0.337079	0.040701	-0.841445	-0.220710	0.032460	-0.831423	-0.048031	0.903778	-0.814358	-0.044162	0.705477	-0.711339	-0.067066	0.724416	-0.654878	-0.079277	0.644733	-0.634478	-0.056688	0.621057	-0.691182	-0.076733	0.552336	-0.644181	-0.184726	0.560120	-0.661316	-0.043814	0.328573	-0.636902	-0.073354	0.342927	-0.581688	-0.076860	0.255660	-0.573023	-0.049537	0.246095	-0.627868	-0.066826	0.111756	-0.602296	-0.146822	0.138534	-0.582838	-0.108847	0.050831	-0.648850	-0.094550	0.114769	-0.424598	-0.041267	0.083753	-0.459888	-0.145742	0.096313	-0.441816
3	0.020000	-0.327296	0.957602	-0.727083	-0.275019	1.011565	-0.911011	-0.177210	0.999273	-0.910053	-0.103550	0.970980	-0.729345	-0.390119	0.886508	-0.791339	-0.396523	0.767148	-0.810767	-0.371674	0.766084	-0.749527	-0.355525	0.684731	-0.749603	-0.378371	0.680576	-0.808463	-0.339180	0.533071	-0.826891	-0.233144	0.544588	-0.860194	-0.368062	0.403502	-0.875484	-0.321268	0.392752	-0.828897	-0.317106	0.306796	-0.848909	-0.364904	0.322426	-0.892923	-0.318443	0.114103	-0.964547	-0.239917	0.118041	-0.953858	-0.292833	0.063497	-1.038821	-0.269254	0.056273	-0.800412	-0.336951	0.040729	-0.841481	-0.220893	0.028505	-0.827962	-0.048337	0.901044	-0.802098	-0.043760	0.701569	-0.702195	-0.068398	0.719591	-0.646205	-0.080363	0.639770	-0.627258	-0.055929	0.616930	-0.683006	-0.076734	0.548307	-0.636498	-0.185174	0.553578	-0.655692	-0.044668	0.326377	-0.617706	-0.074778	0.343981	-0.563912	-0.079475	0.256840	-0.549382	-0.050300	0.244583	-0.603493	-0.069130	0.111621	-0.569532	-0.148979	0.140618	-0.552827	-0.110620	0.048335	-0.613298	-0.100931	0.125201	-0.392451	-0.046835	0.091298	-0.424884	-0.151638	0.105987	-0.410003
4	0.030000	-0.327968	0.955791	-0.716350	-0.273869	1.009857	-0.900000	-0.176061	0.997096	-0.897981	-0.103986	0.968381	-0.716607	-0.390575	0.885073	-0.781393	-0.397184	0.766278	-0.802987	-0.372667	0.764494	-0.740935	-0.356486	0.683115	-0.741822	-0.378905	0.679552	-0.800746	-0.339760	0.532064	-0.821563	-0.233290	0.545583	-0.854559	-0.368172	0.403110	-0.871764	-0.321563	0.391701	-0.825316	-0.317477	0.306050	-0.845956	-0.366137	0.323030	-0.891448	-0.317862	0.114772	-0.964016	-0.239330	0.118582	-0.952922	-0.292110	0.064347	-1.038622	-0.267762	0.055996	-0.799766	-0.336954	0.041422	-0.842025	-0.221245	0.029548	-0.828469	-0.048640	0.898236	-0.789529	-0.042786	0.697732	-0.693224	-0.069606	0.714683	-0.638083	-0.080754	0.634284	-0.620302	-0.053571	0.612934	-0.674575	-0.075974	0.544668	-0.628837	-0.187206	0.548617	-0.651007	-0.045568	0.324520	-0.599819	-0.075776	0.345274	-0.547273	-0.081103	0.259058	-0.527948	-0.051960	0.243596	-0.581240	-0.071962	0.112600	-0.538967	-0.151710	0.143200	-0.524817	-0.113123	0.047288	-0.579858	-0.107249	0.135356	-0.363054	-0.052582	0.099655	-0.392041	-0.157795	0.116189	-0.380809
5	0.040000	-0.328642	0.953965	-0.705532	-0.272603	1.007792	-0.888893	-0.174799	0.994743	-0.885910	-0.104759	0.965678	-0.704064	-0.391030	0.883598	-0.771451	-0.397704	0.765377	-0.794579	-0.373725	0.762889	-0.732309	-0.357564	0.681488	-0.733935	-0.379460	0.678560	-0.793032	-0.340497	0.531050	-0.816497	-0.233386	0.544870	-0.846949	-0.368285	0.402766	-0.867823	-0.320339	0.389534	-0.821741	-0.317896	0.305444	-0.842909	-0.366056	0.322961	-0.888530	-0.317747	0.116361	-0.963471	-0.238966	0.119310	-0.952095	-0.291439	0.065377	-1.038079	-0.267728	0.055621	-0.799637	-0.336881	0.041418	-0.842057	-0.221085	0.029295	-0.828246	-0.048852	0.895306	-0.776607	-0.041283	0.694148	-0.684101	-0.070903	0.709999	-0.630101	-0.080136	0.629176	-0.613054	-0.050077	0.608415	-0.666598	-0.076015	0.539832	-0.619997	-0.188412	0.543905	-0.645419	-0.046861	0.322557	-0.583375	-0.076273	0.346344	-0.531744	-0.082181	0.261702	-0.508248	-0.053920	0.242805	-0.560735	-0.075412	0.113730	-0.510787	-0.154590	0.146416	-0.498875	-0.117056	0.047472	-0.549171	-0.112882	0.144686	-0.336235	-0.058917	0.106198	-0.362315	-0.163045	0.126236	-0.354238
6	0.050000	-0.329467	0.952274	-0.694538	-0.271279	1.005419	-0.877657	-0.173467	0.992217	-0.873894	-0.105346	0.963143	-0.691368	-0.391357	0.882030	-0.761310	-0.398120	0.764468	-0.785950	-0.374769	0.761436	-0.723562	-0.358697	0.679968	-0.725815	-0.381137	0.677536	-0.786443	-0.341007	0.530448	-0.810284	-0.233375	0.544278	-0.839171	-0.368408	0.402605	-0.863753	-0.322502	0.389868	-0.817165	-0.318371	0.304826	-0.839681	-0.366166	0.323136	-0.885566	-0.317068	0.116694	-0.962591	-0.238716	0.120121	-0.951064	-0.290779	0.066983	-1.037580	-0.269159	0.055516	-0.799860	-0.336818	0.041376	-0.842074	-0.221053	0.029614	-0.828389	-0.048841	0.892313	-0.763481	-0.039470	0.690840	-0.673978	-0.071290	0.706007	-0.621339	-0.078948	0.624942	-0.604264	-0.046681	0.604964	-0.656737	-0.075107	0.537964	-0.611293	-0.187835	0.540838	-0.637905	-0.048071	0.320252	-0.567949	-0.076555	0.346879	-0.517114	-0.083648	0.263362	-0.490057	-0.056043	0.242007	-0.542232	-0.079223	0.114749	-0.485632	-0.157525	0.149899	-0.475203	-0.122176	0.048901	-0.521664	-0.117583	0.152501	-0.312276	-0.064398	0.111496	-0.335125	-0.168300	0.136278	-0.330021
7	0.060000	-0.330324	0.950499	-0.683559	-0.269959	1.002906	-0.866430	-0.172196	0.989537	-0.861824	-0.105967	0.960440	-0.679018	-0.390721	0.879943	-0.750683	-0.398504	0.763722	-0.777306	-0.375705	0.759910	-0.714554	-0.359775	0.678421	-0.717512	-0.381811	0.676715	-0.778425	-0.341529	0.529779	-0.803693	-0.233381	0.543721	-0.831058	-0.368551	0.402264	-0.858938	-0.323096	0.389083	-0.812392	-0.318944	0.304436	-0.836183	-0.365171	0.322721	-0.881142	-0.316489	0.117565	-0.961460	-0.238381	0.121060	-0.949707	-0.290401	0.068469	-1.036834	-0.267667	0.054710	-0.799378	-0.336828	0.041346	-0.842044	-0.220959	0.029349	-0.827916	-0.048727	0.889376	-0.750414	-0.038773	0.687749	-0.663194	-0.070600	0.703104	-0.610579	-0.078266	0.622252	-0.593296	-0.046147	0.602002	-0.645808	-0.074960	0.535243	-0.601412	-0.186286	0.539241	-0.627203	-0.049552	0.317944	-0.553805	-0.076513	0.346938	-0.503452	-0.084953	0.264195	-0.473466	-0.058751	0.240524	-0.525557	-0.083205	0.115132	-0.463808	-0.160165	0.153160	-0.453999	-0.128469	0.049239	-0.497988	-0.121325	0.158884	-0.291281	-0.069913	0.113999	-0.312852	-0.172406	0.144596	-0.309222
8	0.070000	-0.331061	0.948762	-0.672397	-0.268676	1.000280	-0.855087	-0.170938	0.987037	-0.849933	-0.106352	0.957967	-0.666703	-0.390829	0.878504	-0.740423	-0.398683	0.762845	-0.767909	-0.376473	0.758442	-0.705370	-0.360712	0.677049	-0.708865	-0.381925	0.675759	-0.769457	-0.341789	0.528908	-0.796613	-0.233241	0.543797	-0.823399	-0.368429	0.402349	-0.853876	-0.323573	0.388348	-0.807162	-0.319354	0.304006	-0.832180	-0.366097	0.323502	-0.878009	-0.316749	0.119591	-0.960649	-0.238407	0.121968	-0.948182	-0.290107	0.070517	-1.036103	-0.269048	0.055080	-0.799298	-0.336803	0.041315	-0.841989	-0.220816	0.030125	-0.828169	-0.048499	0.886631	-0.737596	-0.038928	0.685383	-0.651456	-0.069626	0.702631	-0.598312	-0.078610	0.620566	-0.580905	-0.047567	0.599811	-0.633782	-0.074684	0.532350	-0.590677	-0.185717	0.538511	-0.614700	-0.051768	0.315585	-0.540728	-0.076767	0.346152	-0.490244	-0.086066	0.264204	-0.458570	-0.061686	0.238880	-0.510808	-0.087012	0.114605	-0.445168	-0.162070	0.155218	-0.434720	-0.133601	0.050248	-0.478184	-0.124769	0.163029	-0.273655	-0.073945	0.116303	-0.293521	-0.175880	0.150539	-0.291752
